<?xml version="1.0" encoding="utf-8"?><!-- Uploaded to: SVG Repo, www.svgrepo.com, Generator: SVG Repo Mixer Tools -->
<svg width="800px" height="800px" viewBox="0 0 24 24" id="moon-cloudy" xmlns="http://www.w3.org/2000/svg" class="icon multi-color"><title style="stroke-width: 2;">moon cloudy</title><path id="secondary-stroke" d="M13.78,10A5.08,5.08,0,0,0,14,8.5,5.5,5.5,0,0,0,8.5,3a5.34,5.34,0,0,0-1.45.2A3,3,0,1,1,3.2,7.05,5.34,5.34,0,0,0,3,8.5a5.51,5.51,0,0,0,4.37,5.39" style="fill: none; stroke: rgb(44, 169, 188); stroke-linecap: round; stroke-linejoin: round; stroke-width: 2;"></path><path id="tertiary-fill" d="M20.7,16.9a3.32,3.32,0,0,1-3,2.1H8.5a2.46,2.46,0,0,1-2.08-1.2A2.46,2.46,0,0,1,8.5,16.6a2.27,2.27,0,0,1,.9.19A4.27,4.27,0,0,1,13.5,13a4.1,4.1,0,0,1,3.4,1.91,2.76,2.76,0,0,1,.77-.11A3.32,3.32,0,0,1,20.7,16.9Z" style="fill: #b7b7b7; stroke-width: 2;"></path><path id="primary-stroke" d="M21,15.4a3.9,3.9,0,0,1-.3,1.5,3.32,3.32,0,0,1-3,2.1H8.5a2.46,2.46,0,0,1-2.08-1.2A2.91,2.91,0,0,1,6,16.3a2.61,2.61,0,0,1,2.5-2.7,2.27,2.27,0,0,1,.9.19A4.27,4.27,0,0,1,13.5,10a4.1,4.1,0,0,1,3.4,1.91,2.76,2.76,0,0,1,.77-.11A3.47,3.47,0,0,1,21,15.4Z" style="fill: none; stroke: rgb(0, 0, 0); stroke-linecap: round; stroke-linejoin: round; stroke-width: 2;"></path></svg>