<?xml version="1.0" encoding="utf-8"?><!-- Uploaded to: SVG Repo, www.svgrepo.com, Generator: SVG Repo Mixer Tools -->
<svg fill="#000000" width="800px" height="800px" viewBox="0 0 24 24" id="moon-alt-1" xmlns="http://www.w3.org/2000/svg" class="icon multi-color"><title style="stroke-width: 2;">moon alt 1</title><path id="secondary-fill" d="M14.64,3a8.15,8.15,0,0,1,2,.24A8.32,8.32,0,0,0,14.69,4,9,9,0,0,0,10,12a9,9,0,0,0,4.69,8,8.32,8.32,0,0,0,1.94.76,8.15,8.15,0,0,1-2,.24A8.83,8.83,0,0,1,6,12,8.83,8.83,0,0,1,14.64,3Z" style="fill: rgb(44, 169, 188); stroke-width: 2;"></path><path id="primary-stroke" d="M18,20.29a8.26,8.26,0,0,1-3.36.71A8.83,8.83,0,0,1,6,12a8.83,8.83,0,0,1,8.64-9A8.26,8.26,0,0,1,18,3.71,9,9,0,0,0,12.72,12,9,9,0,0,0,18,20.29Z" style="fill: none; stroke: rgb(0, 0, 0); stroke-linecap: round; stroke-linejoin: round; stroke-width: 2;"></path></svg>