<?xml version="1.0" encoding="utf-8"?><!-- Uploaded to: SVG Repo, www.svgrepo.com, Generator: SVG Repo Mixer Tools -->
<svg width="800px" height="800px" viewBox="0 0 24 24" id="sunlight" xmlns="http://www.w3.org/2000/svg" class="icon multi-color"><title style="stroke-width: 2;">sunlight</title><path id="tertiary-fill" d="M16.59,14a5.13,5.13,0,0,1-1.05,1.54,5,5,0,0,1-7.08,0A5.13,5.13,0,0,1,7.41,14a5,5,0,0,1,9.18,0Z" style="fill: #b7b7b7; stroke-width: 2;"></path><path id="primary-stroke" d="M12,7V3m6.36,2.64L15.54,8.46M21,12H17m-1.46,3.54,1.37,1.37,1.45,1.45M12,21V17M8.46,15.54,7.09,16.91,5.64,18.36M7,12H3M8.46,8.46,5.64,5.64m9.9,2.82A5,5,0,0,0,7,12a5,5,0,0,0,1.46,3.54,5,5,0,0,0,7.08,0A5,5,0,0,0,17,12,5,5,0,0,0,15.54,8.46Z" style="fill: none; stroke: rgb(0, 0, 0); stroke-linecap: round; stroke-linejoin: round; stroke-width: 2;"></path></svg>