<?xml version="1.0" encoding="utf-8"?><!-- Uploaded to: SVG Repo, www.svgrepo.com, Generator: SVG Repo Mixer Tools -->
<svg width="800px" height="800px" viewBox="0 0 24 24" id="sunset" xmlns="http://www.w3.org/2000/svg" class="icon multi-color"><title style="stroke-width: 2;">sunset</title><ellipse id="tertiary-fill" cx="12" cy="15.5" rx="3.7" ry="2.5" style="fill: #b7b7b7; stroke-width: 2;"></ellipse><path id="primary-stroke" d="M12,10a4,4,0,0,0-4,4,3.76,3.76,0,0,0,.3,1.5,4,4,0,0,0,7.4,0A3.76,3.76,0,0,0,16,14,4,4,0,0,0,12,10Zm9,8H3" style="fill: none; stroke: rgb(0, 0, 0); stroke-linecap: round; stroke-linejoin: round; stroke-width: 2;"></path><path id="secondary-stroke" d="M3,14H4M6.34,8.34l-.7-.7M12,5V6m6.36,1.64-.7.7M21,14H20" style="fill: none; stroke: rgb(44, 169, 188); stroke-linecap: round; stroke-linejoin: round; stroke-width: 2;"></path></svg>